<svg width="1" height="1" viewBox="0 0 1 1" fill="none" xmlns="http://www.w3.org/2000/svg">
<g clip-path="url(#clip0_329_191)">
<rect width="1" height="1" fill="white"/>
<path d="M0.675755 0.106843C0.612895 0.0412058 0.522226 0 0.42142 0C0.231632 0 0.0777778 0.146058 0.0777778 0.326229C0.0777778 0.352313 0.0810023 0.377681 0.0870934 0.401995C0.0328881 0.460133 0 0.536487 0 0.620109C0 0.802278 0.156079 0.949955 0.348611 0.949955C0.35928 0.949955 0.369837 0.949501 0.380262 0.948613C0.440891 0.981305 0.511175 1 0.586111 1C0.814696 1 1 0.826047 1 0.611465C1 0.547849 0.983713 0.487804 0.954841 0.434804C0.96489 0.408583 0.97037 0.380285 0.97037 0.350773C0.97037 0.214838 0.854089 0.104641 0.710648 0.104641C0.698816 0.104641 0.687168 0.10539 0.675755 0.106843Z" fill="#F73E3E"/>
<path d="M0.5 0L0.890916 0.188255L0.987464 0.61126L0.716942 0.950484H0.283058L0.012536 0.61126L0.109084 0.188255L0.5 0Z" fill="#0000FF"/>
</g>
<defs>
<clipPath id="clip0_329_191">
<rect width="1" height="1" fill="white"/>
</clipPath>
</defs>
</svg>
